<mxfile host="app.diagrams.net" modified="2023-03-24T19:36:03.582Z" agent="Mozilla/5.0 (Windows NT 10.0; Win64; x64) AppleWebKit/537.36 (KHTML, like Gecko) Chrome/111.0.0.0 Safari/537.36" etag="q0TaJfQN0RUmzLUyuP1N" version="21.1.1" type="device">
  <diagram name="Página-1" id="UwjQJw9BxKhqL22xLitX">
    <mxGraphModel dx="926" dy="509" grid="1" gridSize="10" guides="1" tooltips="1" connect="1" arrows="1" fold="1" page="1" pageScale="1" pageWidth="1169" pageHeight="827" math="0" shadow="0">
      <root>
        <mxCell id="0" />
        <mxCell id="1" parent="0" />
        <mxCell id="6R0iKzOysELgqUjjmmwI-2" style="edgeStyle=orthogonalEdgeStyle;rounded=0;orthogonalLoop=1;jettySize=auto;html=1;curved=1;" edge="1" parent="1" source="aO7z3Tu4z-U8yW5bVTrF-1" target="aO7z3Tu4z-U8yW5bVTrF-4">
          <mxGeometry relative="1" as="geometry" />
        </mxCell>
        <mxCell id="6R0iKzOysELgqUjjmmwI-14" style="edgeStyle=orthogonalEdgeStyle;rounded=0;orthogonalLoop=1;jettySize=auto;html=1;entryX=0;entryY=0.5;entryDx=0;entryDy=0;curved=1;" edge="1" parent="1" source="aO7z3Tu4z-U8yW5bVTrF-1" target="6R0iKzOysELgqUjjmmwI-13">
          <mxGeometry relative="1" as="geometry" />
        </mxCell>
        <mxCell id="aO7z3Tu4z-U8yW5bVTrF-1" value="Atendentes" style="shape=umlActor;verticalLabelPosition=bottom;verticalAlign=top;html=1;outlineConnect=0;" parent="1" vertex="1">
          <mxGeometry x="221" y="419" width="30" height="60" as="geometry" />
        </mxCell>
        <mxCell id="6R0iKzOysELgqUjjmmwI-4" style="edgeStyle=orthogonalEdgeStyle;rounded=0;orthogonalLoop=1;jettySize=auto;html=1;entryX=0;entryY=0.5;entryDx=0;entryDy=0;curved=1;" edge="1" parent="1" source="aO7z3Tu4z-U8yW5bVTrF-4" target="6R0iKzOysELgqUjjmmwI-3">
          <mxGeometry relative="1" as="geometry" />
        </mxCell>
        <mxCell id="aO7z3Tu4z-U8yW5bVTrF-4" value="Cadastro&lt;br&gt;Livros" style="ellipse;whiteSpace=wrap;html=1;align=center;" parent="1" vertex="1">
          <mxGeometry x="331" y="399" width="100" height="40" as="geometry" />
        </mxCell>
        <mxCell id="6R0iKzOysELgqUjjmmwI-26" style="edgeStyle=orthogonalEdgeStyle;rounded=0;orthogonalLoop=1;jettySize=auto;html=1;curved=1;" edge="1" parent="1" source="aO7z3Tu4z-U8yW5bVTrF-6" target="6R0iKzOysELgqUjjmmwI-25">
          <mxGeometry relative="1" as="geometry" />
        </mxCell>
        <mxCell id="aO7z3Tu4z-U8yW5bVTrF-6" value="Estante" style="ellipse;whiteSpace=wrap;html=1;align=center;" parent="1" vertex="1">
          <mxGeometry x="701" y="399" width="100" height="40" as="geometry" />
        </mxCell>
        <mxCell id="aO7z3Tu4z-U8yW5bVTrF-11" value="Categoria&lt;br&gt;Terror" style="ellipse;whiteSpace=wrap;html=1;align=center;" parent="1" vertex="1">
          <mxGeometry x="848.5" y="229" width="100" height="40" as="geometry" />
        </mxCell>
        <mxCell id="aO7z3Tu4z-U8yW5bVTrF-12" value="Categoria&lt;br&gt;Romance" style="ellipse;whiteSpace=wrap;html=1;align=center;" parent="1" vertex="1">
          <mxGeometry x="701" y="229" width="100" height="40" as="geometry" />
        </mxCell>
        <mxCell id="aO7z3Tu4z-U8yW5bVTrF-13" value="Categoria&lt;br&gt;Drama" style="ellipse;whiteSpace=wrap;html=1;align=center;" parent="1" vertex="1">
          <mxGeometry x="561" y="229" width="100" height="40" as="geometry" />
        </mxCell>
        <mxCell id="6R0iKzOysELgqUjjmmwI-5" style="edgeStyle=orthogonalEdgeStyle;rounded=0;orthogonalLoop=1;jettySize=auto;html=1;entryX=0;entryY=0.5;entryDx=0;entryDy=0;curved=1;" edge="1" parent="1" source="6R0iKzOysELgqUjjmmwI-3" target="aO7z3Tu4z-U8yW5bVTrF-6">
          <mxGeometry relative="1" as="geometry" />
        </mxCell>
        <mxCell id="6R0iKzOysELgqUjjmmwI-3" value="Livros" style="ellipse;whiteSpace=wrap;html=1;align=center;" vertex="1" parent="1">
          <mxGeometry x="521" y="399" width="100" height="40" as="geometry" />
        </mxCell>
        <mxCell id="6R0iKzOysELgqUjjmmwI-18" style="edgeStyle=orthogonalEdgeStyle;rounded=0;orthogonalLoop=1;jettySize=auto;html=1;entryX=0;entryY=0.5;entryDx=0;entryDy=0;curved=1;" edge="1" parent="1" source="6R0iKzOysELgqUjjmmwI-13" target="6R0iKzOysELgqUjjmmwI-15">
          <mxGeometry relative="1" as="geometry" />
        </mxCell>
        <mxCell id="6R0iKzOysELgqUjjmmwI-19" style="edgeStyle=orthogonalEdgeStyle;rounded=0;orthogonalLoop=1;jettySize=auto;html=1;entryX=0;entryY=0.5;entryDx=0;entryDy=0;curved=1;" edge="1" parent="1" source="6R0iKzOysELgqUjjmmwI-13" target="6R0iKzOysELgqUjjmmwI-16">
          <mxGeometry relative="1" as="geometry" />
        </mxCell>
        <mxCell id="6R0iKzOysELgqUjjmmwI-13" value="Gerenciamento&lt;br&gt;Informações" style="ellipse;whiteSpace=wrap;html=1;align=center;" vertex="1" parent="1">
          <mxGeometry x="326" y="469" width="110" height="50" as="geometry" />
        </mxCell>
        <mxCell id="6R0iKzOysELgqUjjmmwI-17" style="edgeStyle=orthogonalEdgeStyle;rounded=0;orthogonalLoop=1;jettySize=auto;html=1;entryX=0.5;entryY=1;entryDx=0;entryDy=0;curved=1;" edge="1" parent="1" source="6R0iKzOysELgqUjjmmwI-15" target="6R0iKzOysELgqUjjmmwI-3">
          <mxGeometry relative="1" as="geometry" />
        </mxCell>
        <mxCell id="6R0iKzOysELgqUjjmmwI-15" value="Autor(s)" style="ellipse;whiteSpace=wrap;html=1;align=center;" vertex="1" parent="1">
          <mxGeometry x="521" y="474" width="100" height="40" as="geometry" />
        </mxCell>
        <mxCell id="6R0iKzOysELgqUjjmmwI-20" style="edgeStyle=orthogonalEdgeStyle;rounded=0;orthogonalLoop=1;jettySize=auto;html=1;entryX=0.5;entryY=1;entryDx=0;entryDy=0;curved=1;" edge="1" parent="1" source="6R0iKzOysELgqUjjmmwI-16" target="6R0iKzOysELgqUjjmmwI-15">
          <mxGeometry relative="1" as="geometry" />
        </mxCell>
        <mxCell id="6R0iKzOysELgqUjjmmwI-16" value="Editora(s)" style="ellipse;whiteSpace=wrap;html=1;align=center;" vertex="1" parent="1">
          <mxGeometry x="521" y="559" width="100" height="40" as="geometry" />
        </mxCell>
        <mxCell id="6R0iKzOysELgqUjjmmwI-28" style="edgeStyle=orthogonalEdgeStyle;rounded=0;orthogonalLoop=1;jettySize=auto;html=1;entryX=0.5;entryY=1;entryDx=0;entryDy=0;curved=1;" edge="1" parent="1" source="6R0iKzOysELgqUjjmmwI-25" target="aO7z3Tu4z-U8yW5bVTrF-11">
          <mxGeometry relative="1" as="geometry" />
        </mxCell>
        <mxCell id="6R0iKzOysELgqUjjmmwI-29" style="edgeStyle=orthogonalEdgeStyle;rounded=0;orthogonalLoop=1;jettySize=auto;html=1;entryX=0.42;entryY=1;entryDx=0;entryDy=0;entryPerimeter=0;curved=1;" edge="1" parent="1" source="6R0iKzOysELgqUjjmmwI-25" target="aO7z3Tu4z-U8yW5bVTrF-13">
          <mxGeometry relative="1" as="geometry" />
        </mxCell>
        <mxCell id="6R0iKzOysELgqUjjmmwI-30" style="edgeStyle=orthogonalEdgeStyle;rounded=0;orthogonalLoop=1;jettySize=auto;html=1;entryX=0.5;entryY=1;entryDx=0;entryDy=0;curved=1;" edge="1" parent="1" source="6R0iKzOysELgqUjjmmwI-25" target="aO7z3Tu4z-U8yW5bVTrF-12">
          <mxGeometry relative="1" as="geometry" />
        </mxCell>
        <mxCell id="6R0iKzOysELgqUjjmmwI-25" value="Categoria" style="ellipse;whiteSpace=wrap;html=1;align=center;" vertex="1" parent="1">
          <mxGeometry x="701" y="309" width="100" height="40" as="geometry" />
        </mxCell>
      </root>
    </mxGraphModel>
  </diagram>
</mxfile>
